<mxfile host="app.diagrams.net" agent="Mozilla/5.0 (Windows NT 10.0; Win64; x64; rv:137.0) Gecko/20100101 Firefox/137.0" version="26.2.5">
  <diagram name="Page-1" id="XZei_ogr3s1UZNxXS6lB">
    <mxGraphModel>
      <root>
        <mxCell id="1" />
        <mxCell id="2" parent="1" />
        <mxCell id="3" value="Azure DevOps" vertex="1" parent="2">
          <mxGeometry x="20" y="20" width="120" height="60" as="geometry" />
        </mxCell>
        <mxCell id="4" value="Terraform Apply" vertex="1" parent="2">
          <mxGeometry x="180" y="20" width="120" height="60" as="geometry" />
        </mxCell>
        <mxCell id="5" value="GitLab (Puppet Config)" vertex="1" parent="2">
          <mxGeometry x="340" y="20" width="120" height="60" as="geometry" />
        </mxCell>
        <mxCell id="6" edge="1" parent="2" source="3" target="4">
          <mxGeometry relative="1" as="geometry" />
        </mxCell>
        <mxCell id="7" edge="1" parent="2" source="4" target="5">
          <mxGeometry relative="1" as="geometry" />
        </mxCell>
      </root>
  </mxGraphModel>
  </diagram>
</mxfile>
